<?xml version="1.0" encoding="UTF-8" standalone="no"?>
<!-- Created with Inkscape (http://www.inkscape.org/) -->

<svg
   width="53.066021mm"
   height="7.9204259mm"
   viewBox="0 0 53.066021 7.9204259"
   version="1.1"
   id="svg5"
   inkscape:version="1.3 (0e150ed6c4, 2023-07-21)"
   sodipodi:docname="black-sig.svg"
   xmlns:inkscape="http://www.inkscape.org/namespaces/inkscape"
   xmlns:sodipodi="http://sodipodi.sourceforge.net/DTD/sodipodi-0.dtd"
   xmlns="http://www.w3.org/2000/svg"
   xmlns:svg="http://www.w3.org/2000/svg">
  <sodipodi:namedview
     id="namedview7"
     pagecolor="#ffffff"
     bordercolor="#666666"
     borderopacity="1.0"
     inkscape:showpageshadow="2"
     inkscape:pageopacity="0.0"
     inkscape:pagecheckerboard="0"
     inkscape:deskcolor="#d1d1d1"
     inkscape:document-units="mm"
     showgrid="false"
     inkscape:zoom="2.8170388"
     inkscape:cx="49.165102"
     inkscape:cy="5.1472489"
     inkscape:window-width="2560"
     inkscape:window-height="1043"
     inkscape:window-x="0"
     inkscape:window-y="0"
     inkscape:window-maximized="1"
     inkscape:current-layer="layer1" />
  <defs
     id="defs2">
    <inkscape:perspective
       sodipodi:type="inkscape:persp3d"
       inkscape:vp_x="0 : -140.57957 : 1"
       inkscape:vp_y="0 : 999.99995 : 0"
       inkscape:vp_z="210.00001 : -140.57957 : 1"
       inkscape:persp3d-origin="105.00001 : -190.07957 : 1"
       id="perspective1975" />
  </defs>
  <g
     inkscape:label="Layer 1"
     inkscape:groupmode="layer"
     id="layer1"
     transform="translate(-25.373362,-174.17948)">
    <g
       id="g10026"
       transform="rotate(4.979519,51.956868,179.44138)"
       style="fill:none;fill-opacity:1">
      <path
         style="fill:none;stroke:#000000;stroke-width:0.765;stroke-linecap:butt;stroke-linejoin:miter;stroke-dasharray:none;stroke-opacity:1;fill-opacity:1"
         d="m 37.53645,176.6893 c -1.504212,0.4687 -2.344281,2.15925 -2.173312,3.66609 0.09079,1.28847 1.183426,2.49304 2.511139,2.51469 1.612026,0.10413 3.215404,-1.19774 3.319449,-2.83515 0.322823,-1.67166 -0.506701,-3.62385 -2.150362,-4.25866 -0.824453,-0.28181 -1.905492,0.38698 -1.828717,1.30411 0.184171,0.69223 0.910153,0.99209 1.492942,1.28172 1.571596,0.62957 3.328407,0.4318 4.9301,0.0311 0.638415,-0.22104 1.317011,-0.66492 1.433045,-1.38242 0.570004,-0.24243 0.685562,-1.13151 0.0034,-1.31215 -0.583666,-0.27178 -0.75995,0.37356 -0.3866,0.72676 0.635148,1.15858 1.873998,1.9486 2.197735,3.28123 0.172126,0.7633 -0.266205,1.58475 -0.981051,1.89271 -0.818997,0.39942 -1.756312,0.36947 -2.642202,0.46373 -0.30497,0.0123 -0.611065,0.008 -0.914748,-0.0245"
         id="path4203"
         sodipodi:nodetypes="cccccccccccccc" />
      <path
         style="fill:none;stroke:#000000;stroke-width:0.765;stroke-linecap:butt;stroke-linejoin:miter;stroke-dasharray:none;stroke-opacity:1;fill-opacity:1"
         d="m 51.823106,176.58938 c -3.573511,-2.41654 -6.735554,4.18837 -3.38303,5.01537 2.013271,0.643 4.36737,-0.38041 5.403941,-2.19039"
         id="path4205"
         sodipodi:nodetypes="ccc" />
      <path
         style="fill:none;stroke:#000000;stroke-width:0.765;stroke-linecap:butt;stroke-linejoin:miter;stroke-dasharray:none;stroke-opacity:1;fill-opacity:1"
         d="m 56.940127,180.45949 c 2.02457,-1.12365 2.237707,-6.09202 -0.471793,-4.99063 -3.119376,1.56716 -2.595322,6.63566 0.471793,4.99063 z"
         id="path4207"
         sodipodi:nodetypes="ccc" />
      <path
         style="fill:none;stroke:#000000;stroke-width:0.765;stroke-linecap:butt;stroke-linejoin:miter;stroke-dasharray:none;stroke-opacity:1;fill-opacity:1"
         d="m 59.797857,174.70884 c -1.091484,1.56584 -1.737114,4.30466 -0.106293,5.69188 2.246546,0.71368 4.532431,-2.64996 4.825637,-4.71891 0.536141,-2.05385 -3.400981,-1.39236 -1.476602,-0.27908 1.824328,0.59054 5.792689,-1.70478 4.750727,1.92116 -1.846117,4.24476 7.092925,-0.4441 10.389619,-1.28535"
         id="path4209"
         sodipodi:nodetypes="cccccc" />
      <path
         style="fill:none;stroke:#000000;stroke-width:0.765;stroke-linecap:butt;stroke-linejoin:miter;stroke-dasharray:none;stroke-opacity:1;fill-opacity:1"
         d="m 35.397043,180.54399 c -1.621421,-0.35699 -1.899936,0.55825 -3.556938,1.88934 -1.855562,1.13345 -4.027752,1.24646 -6.142019,1.58153"
         id="path4211"
         sodipodi:nodetypes="ccc" />
    </g>
  </g>
</svg>
