<?xml version="1.0" encoding="UTF-8" standalone="no"?>
<!-- Created with Inkscape (http://www.inkscape.org/) -->

<svg
   width="25.107697mm"
   height="21.949484mm"
   viewBox="0 0 25.107697 21.949484"
   version="1.1"
   id="svg21782"
   inkscape:version="1.2.1 (9c6d41e410, 2022-07-14)"
   sodipodi:docname="black-initials.svg"
   xmlns:inkscape="http://www.inkscape.org/namespaces/inkscape"
   xmlns:sodipodi="http://sodipodi.sourceforge.net/DTD/sodipodi-0.dtd"
   xmlns="http://www.w3.org/2000/svg"
   xmlns:svg="http://www.w3.org/2000/svg">
  <sodipodi:namedview
     id="namedview21784"
     pagecolor="#ffffff"
     bordercolor="#666666"
     borderopacity="1.0"
     inkscape:showpageshadow="2"
     inkscape:pageopacity="0.0"
     inkscape:pagecheckerboard="0"
     inkscape:deskcolor="#d1d1d1"
     inkscape:document-units="mm"
     showgrid="false"
     inkscape:zoom="2.8170388"
     inkscape:cx="16.506695"
     inkscape:cy="31.415968"
     inkscape:window-width="1346"
     inkscape:window-height="706"
     inkscape:window-x="0"
     inkscape:window-y="0"
     inkscape:window-maximized="1"
     inkscape:current-layer="layer1" />
  <defs
     id="defs21779" />
  <g
     inkscape:label="Layer 1"
     inkscape:groupmode="layer"
     id="layer1"
     transform="translate(-41.252015,-123.86908)">
    <path
       style="fill:none;stroke:#000000;stroke-width:0.765;stroke-linecap:butt;stroke-linejoin:miter;stroke-dasharray:none;stroke-opacity:1"
       d="m 47.192755,124.47923 c -2.490618,-0.20612 -4.752696,1.82223 -5.421654,4.125 -0.443502,1.33461 0.23654,2.90386 1.577436,3.3978 1.436153,0.65634 3.152851,0.81185 4.584038,0.0503 2.022606,-0.93277 3.625615,-3.36938 2.738166,-5.59867 -0.409002,-1.12267 -1.328678,-2.23411 -2.628342,-2.19926 -1.076405,-0.0233 -2.520897,0.62612 -2.459237,1.86719 0.3658,1.1978 1.798254,1.5932 2.910583,1.73494 3.230606,0.25497 5.760848,-2.2954 8.859163,-2.6899 0.842622,-0.20522 1.140764,0.13404 0.620092,0.8701 -1.542646,3.60264 -3.669505,6.92601 -5.110329,10.5762 -1.354038,3.00481 -2.648021,6.03614 -3.978931,9.05117"
       id="path21790" />
    <path
       style="fill:none;stroke:#000000;stroke-width:0.765;stroke-linecap:butt;stroke-linejoin:miter;stroke-dasharray:none;stroke-opacity:1"
       d="m 58.000447,126.06161 c 0.468015,-1.21028 1.82725,-2.16821 3.133698,-1.68268 4.475594,1.68626 -0.400702,6.13085 2.090715,7.7579 0.892163,0.57081 2.111732,0.36913 2.878593,-0.3229"
       id="path21792"
       sodipodi:nodetypes="cccc" />
  </g>
</svg>
