<?xml version="1.0" encoding="UTF-8" standalone="no"?>
<!-- Created with Inkscape (http://www.inkscape.org/) -->

<svg
   width="232.20992mm"
   height="40.122227mm"
   viewBox="0 0 232.20992 40.122227"
   version="1.1"
   id="svg1"
   inkscape:version="1.3 (0e150ed6c4, 2023-07-21)"
   sodipodi:docname="black-sig.svg"
   xmlns:inkscape="http://www.inkscape.org/namespaces/inkscape"
   xmlns:sodipodi="http://sodipodi.sourceforge.net/DTD/sodipodi-0.dtd"
   xmlns="http://www.w3.org/2000/svg"
   xmlns:svg="http://www.w3.org/2000/svg">
  <sodipodi:namedview
     id="namedview1"
     pagecolor="#505050"
     bordercolor="#eeeeee"
     borderopacity="1"
     inkscape:showpageshadow="0"
     inkscape:pageopacity="0"
     inkscape:pagecheckerboard="0"
     inkscape:deskcolor="#d1d1d1"
     inkscape:document-units="mm"
     inkscape:zoom="0.37282197"
     inkscape:cx="332.59843"
     inkscape:cy="835.51943"
     inkscape:window-width="1551"
     inkscape:window-height="1295"
     inkscape:window-x="26"
     inkscape:window-y="23"
     inkscape:window-maximized="0"
     inkscape:current-layer="layer1" />
  <defs
     id="defs1" />
  <g
     inkscape:label="Layer 1"
     inkscape:groupmode="layer"
     id="layer1"
     transform="translate(34.131257,-54.768751)">
    <path
       id="path16"
       style="fill:#000000;stroke-width:1.58201"
       d="m 48.648,54.768801 c -2.1236,0 -4.12452,0.93591 -4.63457,2.16726 -0.27644,0.66741 -0.87009,1.4097 -1.31866,1.64977 -0.44851,0.24007 -0.71206,0.53956 -0.58535,0.66628 0.12672,0.12672 0.03,0.60554 -0.21501,1.0636 -1.08766,2.03232 -0.17968,5.15129 2.24329,7.706 0.69076,0.72831 1.14814,1.49794 1.017,1.71026 -0.39887,0.6454 -7.57239,4.22688 -8.66741,4.32718 -2.19606,0.20124 -2.36146,0.0596 -2.60791,-2.23348 -0.2747,-2.55606 -1.11175,-4.38962 -3.19734,-7.0062 -1.89238,-2.37415 -2.92527,-3.27973 -4.1138,-3.60529 -0.51797,-0.14191 -0.94178,-0.42588 -0.94178,-0.63114 0,-0.20525 -0.33855,-0.37279 -0.75294,-0.37279 -0.41439,0 -0.95335,-0.20042 -1.19767,-0.44473 -0.24431,-0.24432 -2.58949,-0.60228 -5.21092,-0.79628 -3.85327,-0.28514 -5.12314,-0.23203 -6.63015,0.27961 -2.11156,0.71689 -4.85001,2.67985 -6.5402,4.68851 -0.62844,0.74686 -2.621,2.21705 -4.42773,3.26683 -1.80673,1.04979 -3.28482,2.1105 -3.28482,2.35693 0,0.50841 -6.24862,6.55492 -6.77402,6.55492 -0.18812,0 -0.34172,0.28252 -0.34172,0.62786 0,0.34532 -0.30056,0.62787 -0.66792,0.62787 -0.65487,0 -2.69426,0.99698 -3.93639,1.92445 -0.34532,0.25785 -1.09876,0.59802 -1.67429,0.75621 -5.52974,1.51924 -5.03707,1.48848 -12.13864,0.76275 -5.51975,-0.56406 -5.78363,-0.55327 -5.9949,0.24689 h -8.3e-4 c -0.64451,2.44084 0.27483,3.26688 4.74165,4.26259 5.87481,1.30957 13.34521,0.87431 13.42542,-0.78237 0.0182,-0.37554 0.12086,-0.46948 0.22808,-0.20847 0.25441,0.61947 3.34643,-0.0453 4.20536,-0.90419 0.33906,-0.33906 0.87157,-0.61641 1.18377,-0.61641 0.3122,0 1.00556,-0.54474 1.54024,-1.20994 0.53467,-0.6652 1.72545,-1.58655 2.64632,-2.04791 0.92085,-0.46138 2.03283,-1.23596 2.47138,-1.72087 0.43857,-0.48495 1.158,-0.88132 1.59827,-0.88132 0.6423,0 0.73915,0.18613 0.49215,0.94181 -0.71174,2.17738 0.11058,8.40238 1.41922,10.74637 2.02966,3.63546 4.42112,5.21495 9.11296,6.01863 2.26862,0.38861 3.19104,0.32312 6.74297,-0.4758 4.7265,-1.06312 8.08572,-3.00749 11.78382,-6.82144 2.24465,-2.31496 5.51585,-6.53989 5.51585,-7.12392 0,-0.18145 0.26761,-0.22683 0.59433,-0.10141 0.32674,0.12546 1.04738,-0.0696 1.60236,-0.43328 0.55495,-0.3636 1.1048,-0.56625 1.22139,-0.44965 0.11659,0.11659 1.32574,-0.16018 2.6872,-0.6156 1.36145,-0.45543 2.72335,-0.83244 3.02648,-0.83878 0.30312,-0.006 1.16825,-0.48071 1.92282,-1.05624 0.75457,-0.57555 1.52252,-1.04644 1.70618,-1.04644 0.18367,0 1.2963,-0.81448 2.47221,-1.80918 1.17587,-0.99472 2.3497,-1.93251 2.60872,-2.08469 0.60265,-0.35408 4.29327,0.86064 5.38913,1.77402 0.46043,0.38379 1.54927,1.06361 2.41987,1.5108 0.87063,0.44718 2.35025,1.59508 3.2881,2.55069 1.57712,1.60702 1.68429,1.86085 1.4274,3.38129 -0.25295,1.49721 -1.05333,2.64156 -2.9848,4.26666 -0.38627,0.325 -1.76066,0.84003 -3.05427,1.14454 -2.89943,0.68254 -14.23595,0.76072 -15.6687,0.10789 -1.2928,-0.58903 -3.84468,0.56712 -3.4606,1.56802 0.13384,0.3486 0.2488,0.85434 0.25671,1.12328 0.0359,1.3202 1.21012,1.92478 4.82913,2.48855 6.15621,0.95902 13.58093,0.51389 17.18277,-1.0309 0.66335,-0.28449 1.95928,-0.55092 2.88015,-0.59189 3.46562,-0.15441 5.8087,-0.94609 7.00619,-2.36674 0.95758,-1.13602 1.21426,-1.25559 1.56311,-0.73087 0.22958,0.34532 0.42031,0.77865 0.42347,0.96305 0.0158,0.8221 3.21333,3.21866 4.29693,3.22024 0.6331,9.1e-4 1.15107,0.15991 1.15107,0.35235 0,0.1925 2.02485,0.33066 4.49966,0.3074 4.30837,-0.0407 5.71041,-0.32558 8.61428,-1.75034 0.65174,-0.31977 1.55312,-0.58126 2.00211,-0.58126 0.44901,0 0.9245,-0.28253 1.05707,-0.62785 0.13257,-0.34533 0.49677,-0.62787 0.80936,-0.62787 0.31259,0 0.75737,-0.35313 0.98839,-0.78482 0.80893,-1.51149 2.00158,-1.34883 3.94292,0.53793 1.52685,1.48395 2.39875,1.92434 5.41693,2.73544 1.97837,0.53165 4.03183,0.86643 4.56261,0.74477 3.53095,-0.8094 5.47801,-1.58245 6.97923,-2.7714 l 1.71679,-1.36038 1.89013,1.3571 c 1.0393,0.74638 1.88931,1.51333 1.88931,1.70454 0,0.19115 1.70595,0.34826 3.79086,0.34826 3.6169,0 3.84248,-0.055 4.91825,-1.1854 0.62012,-0.65163 2.03427,-1.51871 3.14257,-1.92774 1.10829,-0.409 2.50158,-1.19456 3.09596,-1.74542 0.59439,-0.55085 1.23159,-1.00146 1.41678,-1.00146 0.64139,0 6.65712,-6.16124 6.65712,-6.81817 0,-0.36293 0.37642,-0.77943 0.83632,-0.92544 0.4599,-0.14587 0.94768,-0.70975 1.08405,-1.25326 0.13637,-0.54354 0.51342,-1.09036 0.83796,-1.21486 0.32454,-0.12451 0.59025,-0.42066 0.59025,-0.6581 0,-1.35911 3.33784,-3.2868 6.65875,-3.84564 1.28717,-0.21661 2.951,-0.4999 3.69686,-0.62867 1.76955,-0.30561 2.17382,0.64421 0.98511,2.31358 -0.48191,0.67683 -0.87638,1.4282 -0.87638,1.67021 0,0.47845 -1.56799,2.93791 -3.03303,4.75801 -0.50536,0.62784 -0.9334,1.6638 -0.95159,2.30216 -0.0182,0.63834 -0.25904,1.57202 -0.53549,2.07487 -0.60768,1.10545 -0.65753,3.66534 -0.0916,4.72285 1.45508,2.71884 7.35777,4.96192 9.36231,3.55787 0.48256,-0.33797 1.17932,-0.61396 1.5484,-0.61396 0.36906,0 1.11315,-0.4709 1.65384,-1.04643 0.54069,-0.57556 1.15568,-1.04644 1.36691,-1.04644 0.38781,0 1.68443,-0.92607 4.2495,-3.03466 0.77012,-0.63309 1.54499,-1.15107 1.72091,-1.15107 0.17592,0 1.21071,-0.83391 2.29961,-1.85251 1.31718,-1.23208 2.72138,-2.07203 4.19565,-2.5098 1.21877,-0.36193 2.67565,-0.95964 3.23742,-1.32767 0.57933,-0.37959 2.51303,-0.80442 4.46854,-0.98266 1.89604,-0.17281 3.7114,-0.48268 4.03445,-0.68837 0.3232,-0.20569 1.38726,-0.39931 2.36431,-0.43001 1.96992,-0.0619 3.03714,-0.71361 3.03714,-1.85416 0,-0.75229 -0.64767,-0.98657 -5.7726,-2.08877 -2.61869,-0.56323 -9.40931,0.97065 -13.12039,2.96353 -0.8372,0.44952 -1.79637,0.81753 -2.13224,0.81753 -0.3357,0 -0.95742,0.3833 -1.38156,0.85187 -0.42398,0.46852 -0.97752,0.77275 -1.22954,0.67609 -0.25201,-0.0967 -1.01707,0.38987 -1.7005,1.08158 -0.68327,0.69172 -1.99602,1.73449 -2.91691,2.31687 -0.92089,0.58237 -1.76837,1.18708 -1.88354,1.34401 -0.11517,0.15694 -1.40978,1.07691 -2.87687,2.04464 -2.46678,1.62714 -2.79745,1.73311 -4.39503,1.41186 -1.59237,-0.32017 -1.71876,-0.44441 -1.62115,-1.58436 0.0583,-0.68022 0.10632,-1.67192 0.1071,-2.20406 0.002,-1.33319 1.01711,-3.17596 2.17219,-3.9421 0.52974,-0.35137 1.52811,-1.72452 2.21875,-3.05184 0.69064,-1.32731 1.96205,-3.17048 2.82537,-4.0958 0.8633,-0.92532 1.56965,-1.87723 1.56965,-2.11493 0,-0.23769 0.45849,-0.91285 1.01865,-1.50098 0.6453,-0.67756 1.06706,-1.67677 1.15106,-2.72727 0.11707,-1.46741 0,-1.72541 -1.06026,-2.24084 -0.9866,-0.4817 -1.52912,-0.4911 -3.13937,-0.0556 -1.07066,0.28958 -2.44759,0.77607 -3.06,1.08077 -1.43104,0.71203 -8.23732,1.90437 -9.17346,1.60726 -0.79106,-0.25107 -1.21021,-1.4099 -1.21812,-3.37311 -0.004,-0.70984 -0.14697,-1.43215 -0.31964,-1.60481 -0.17266,-0.17267 -0.33746,-0.48632 -0.36626,-0.69735 -0.0286,-0.21104 -0.0759,-0.54323 -0.10456,-0.73823 -0.10109,-0.68499 -1.59827,-2.1291 -2.59891,-2.50654 -1.25512,-0.47343 -5.27751,0.0443 -6.90973,0.88947 -1.19828,0.62047 -3.93804,3.34513 -3.93804,3.91597 0,0.16066 -0.2945,0.61801 -0.65483,1.01616 -0.36034,0.39818 -0.71451,1.58482 -0.78727,2.63736 -0.11107,1.60697 0.073,2.18143 1.15026,3.5832 0.74704,0.97201 1.77312,1.77679 2.45665,1.92693 0.64565,0.14174 1.28138,0.43171 1.41269,0.64421 0.1313,0.21251 0.67618,0.38669 1.20994,0.38669 0.53377,0 1.19446,0.26933 1.46827,0.59923 0.40123,0.48346 0.28879,0.73657 -0.57716,1.30396 -0.59095,0.3872 -1.07423,0.94993 -1.07423,1.25 0,0.30007 -0.65924,0.95312 -1.465,1.45111 -0.80575,0.49798 -1.4684,1.03066 -1.47156,1.18459 -0.0272,1.16644 -8.76604,8.34282 -9.56097,7.85153 -0.18097,-0.11186 -0.88079,0.0848 -1.55492,0.43737 -1.74171,0.91097 -4.06022,0.99841 -5.02534,0.18885 -1.58706,-1.33123 -1.93736,-2.02152 -1.4691,-2.89651 0.24191,-0.45195 0.52627,-1.962 0.63195,-3.35592 0.10567,-1.39393 0.39209,-2.90748 0.63603,-3.36331 0.24396,-0.45584 0.44311,-1.62341 0.44311,-2.59401 0,-2.02832 1.79573,-6.05471 2.98397,-6.69064 0.46344,-0.24802 0.88483,-1.08642 1.04316,-2.07651 0.14602,-0.91359 0.43032,-1.66122 0.63112,-1.66122 0.20079,0 0.36463,-0.28254 0.36463,-0.62787 0,-0.3453 0.32961,-0.63384 0.73249,-0.64175 0.61534,-0.0111 0.57542,-0.14539 -0.25178,-0.83469 -1.30319,-1.08575 -2.80004,-0.72573 -4.58798,1.10366 -1.32239,1.35306 -2.17023,1.78496 -2.17134,1.1053 -8.4e-4,-0.51217 -1.79613,-2.41908 -3.02975,-3.21861 -0.88917,-0.57624 -1.94433,-0.73218 -4.70895,-0.69326 -3.12121,0.0438 -3.85504,0.20839 -5.9148,1.32276 -3.19182,1.72683 -5.15935,3.3418 -5.44963,4.47268 -0.13289,0.51801 -0.38834,0.94179 -0.56737,0.94179 -0.31843,0 -1.60465,2.40312 -1.62933,3.04447 -0.0216,0.56547 -1.46937,2.81556 -1.81164,2.81556 -0.18055,0 -0.32864,0.4709 -0.32864,1.04644 0,0.57554 -0.2119,1.04644 -0.47089,1.04644 -0.29746,0 -0.38052,0.45161 -0.22564,1.22627 0.13494,0.67446 0.0666,1.28665 -0.15203,1.36038 -0.21863,0.0737 -0.70909,1.68802 -1.08977,3.5873 -0.6102,3.04444 -0.79875,3.45323 -1.59498,3.45323 -0.49674,0 -1.10429,0.20094 -1.34974,0.44637 -0.24543,0.24546 -1.08332,0.5427 -1.86233,0.66055 -0.77902,0.11787 -1.83516,0.48317 -2.34712,0.81182 -2.7359,1.75635 -10.40179,2.53265 -12.3569,1.25163 -1.28787,-0.84384 -2.21372,-3.51838 -1.77322,-5.1218 0.17955,-0.65356 0.35076,-1.47041 0.38097,-1.81574 0.18372,-2.09683 0.95024,-4.24389 2.18198,-6.11427 1.23152,-1.87005 2.49429,-3.16484 7.28824,-7.4681 0.58822,-0.52801 1.46609,-1.08559 1.95061,-1.23937 0.48453,-0.15377 1.10979,-0.55471 1.38899,-0.89111 0.32259,-0.3887 1.27801,-0.61151 2.62098,-0.61151 3.11762,0 4.58802,-1.62764 2.95046,-3.26519 -0.649,-0.64903 -1.39307,-0.72084 -5.44717,-0.52976 -2.05174,0.0967 -5.16106,1.96903 -5.16106,3.10823 0,0.39241 -0.33635,0.68672 -0.78563,0.68672 -0.43226,0 -1.02063,0.28255 -1.30722,0.62787 -0.2866,0.34532 -0.88593,0.62785 -1.33176,0.62785 -0.44587,0 -0.70272,0.1747 -0.57064,0.38834 0.1321,0.21364 -0.1052,0.49779 -0.52811,0.63194 -0.42288,0.13416 -1.40276,1.08968 -2.17708,2.12312 -0.77431,1.03343 -1.5554,1.87948 -1.73561,1.87948 -0.18035,0 -0.21616,0.2903 -0.08,0.64503 0.15757,0.41043 0.0386,0.60074 -0.32701,0.52322 -0.35716,-0.0756 -0.57472,0.24629 -0.57472,0.85105 0,0.53507 -0.29567,1.19434 -0.6573,1.465 -1.35746,1.01604 -3.16023,8.42777 -2.75997,11.34809 0.25845,1.88555 -0.25559,2.69707 -0.68019,1.07341 -0.17805,-0.68084 -0.5714,-0.83716 -2.10511,-0.83716 -1.48052,0 -1.865,-0.14206 -1.78875,-0.66137 0.0535,-0.36372 0.30773,-0.79186 0.5649,-0.95079 0.64681,-0.39975 1.3571,-2.39154 1.3571,-3.80557 0,-0.92302 -0.76496,-1.92899 -3.54562,-4.66481 -1.95008,-1.91865 -4.16327,-3.81799 -4.91823,-4.22008 -1.77026,-0.94282 -3.37767,-1.61706 -3.79415,-1.59254 -0.4621,0.0272 -1.55492,-1.12082 -1.55492,-1.63341 0,-0.23449 0.4709,-1.31128 1.04643,-2.39372 1.25145,-2.35362 1.29627,-3.08564 0.26733,-4.40319 -0.42875,-0.54904 -0.91275,-1.422 -1.07505,-1.93999 -0.16228,-0.51798 -0.55794,-0.94179 -0.87965,-0.94179 -0.32172,0 -0.76939,-0.34364 -0.99411,-0.76357 -0.42166,-0.78785 -2.97211,-1.74787 -4.64356,-1.74787 z m 0.59106,4.47104 c 0.0332,-6.1e-4 0.0663,-3.2e-4 0.0997,8.3e-4 0.84268,0.0602 1.52205,0.62059 2.21958,1.03661 0.40819,0.26448 0.8061,0.62387 0.90991,1.12084 0.19451,0.60219 0.064,1.30107 -0.37198,1.76748 -0.54674,0.66668 -1.22537,1.21551 -1.74133,1.90894 -0.24129,0.30044 -0.64104,0.50151 -1.02763,0.37606 -0.68822,-0.17713 -1.18823,-0.73048 -1.65304,-1.23366 -0.385,-0.44313 -0.7564,-0.90683 -1.05379,-1.41268 -0.12957,-0.42021 0.23153,-0.76709 0.30658,-1.16007 0.11643,-0.34671 -0.0583,-0.68979 -0.0663,-1.03172 0.0766,-0.4831 0.5526,-0.75309 0.95161,-0.95323 0.44766,-0.20681 0.92704,-0.41006 1.42658,-0.4194 z m 95.46827,1.5247 c 0.565,-0.009 1.14199,0.0971 1.6988,0.14555 0.53146,0.0661 1.09829,0.23101 1.43968,0.67363 l 8.1e-4,8.3e-4 c 0.48174,0.50333 1.13439,1.22471 0.92627,1.89585 -0.22178,0.92308 -0.46903,1.772 -0.64749,2.70681 -0.42997,0.58793 -1.00291,0.85931 -1.4462,0.92054 -0.76702,0.15488 -1.52891,-0.15377 -2.23104,-0.4292 -0.59423,-0.25432 -1.18419,-0.53585 -1.7217,-0.89437 -0.3301,-0.35423 -0.13922,-0.87113 -0.25343,-1.2966 -0.051,-0.39946 -0.3887,-0.65589 -0.56083,-0.99084 -0.15614,-0.5155 0.1863,-1.0114 0.48562,-1.40124 0.36731,-0.44782 0.77243,-0.90814 1.31212,-1.14699 0.32401,-0.12924 0.65837,-0.17783 0.99739,-0.18394 z m -123.04588,2.4256 c 0.12482,0.0283 0.14618,0.1139 0.0589,0.25507 -0.24291,0.39304 1.1354,1.10854 1.9179,0.99575 0.17266,-0.0248 0.31392,0.14333 0.31392,0.37361 0,0.23021 0.23546,0.42455 0.52322,0.43246 1.62504,0.0432 4.44293,4.19226 4.78008,7.03891 0.33923,2.86425 -0.0381,3.04809 -6.43393,3.13193 -4.3176,0.0566 -5.81545,-0.0862 -7.71908,-0.73413 -2.10942,-0.71797 -2.4115,-0.96899 -2.82537,-2.35039 -0.91197,-3.04383 -0.33444,-5.18 1.50015,-5.54692 1.62971,-0.32594 3.49814,-1.85057 3.20472,-2.61527 -0.18107,-0.47183 0.13541,-0.6133 1.37916,-0.61804 0.88793,-0.004 2.06781,-0.12735 2.6218,-0.27551 0.32534,-0.087 0.55378,-0.1158 0.67856,-0.0875 z m 91.80411,0.45044 c 0.48678,-0.0543 1.2498,-0.006 2.51225,0.12103 1.7295,0.17369 3.01811,0.50356 3.05592,0.78156 0.0659,0.48462 0.14396,1.35246 0.36298,4.03859 0.0657,0.80575 -0.27434,3.06604 -0.7562,5.02288 -1.26734,5.14656 -1.43941,5.94157 -1.55822,7.20485 -0.12894,1.37249 -2.01078,3.46191 -3.7508,4.16449 -0.69821,0.28192 -1.40412,0.71158 -1.56884,0.95486 -0.17711,0.26165 -1.69146,0.40965 -3.70584,0.36298 -3.99712,-0.0927 -4.61707,-0.47907 -6.10121,-3.80476 -1.07776,-2.41507 -1.09575,-2.52279 -0.59107,-3.44097 0.18981,-0.34533 0.77322,-1.75803 1.2966,-3.13931 1.73333,-4.5746 2.47387,-5.8535 4.9166,-8.4851 1.80091,-1.94014 2.70643,-2.60708 3.53662,-2.60708 0.61364,0 1.28541,-0.30486 1.49362,-0.67692 0.1598,-0.28553 0.3708,-0.44272 0.85759,-0.49706 z M 6.91,70.511081 c 0.41563,0.12783 0.7219,0.5302 0.73006,1.14944 0.0207,1.57099 1.87726,4.62067 3.62818,5.95896 0.93161,0.71205 2.68738,1.61952 3.90205,2.01682 1.92493,0.62962 7.48063,1.23219 10.37441,1.12492 1.06479,-0.0394 1.04607,0.0198 -0.85431,2.66188 -1.27211,1.76862 -2.63077,2.83412 -4.81933,3.78105 -0.74818,0.32375 -1.36035,0.75151 -1.36035,0.94996 0,0.63208 -4.05675,1.42815 -7.46484,1.46501 -2.74721,0.0298 -3.50758,-0.11565 -4.57242,-0.87394 -0.70243,-0.50018 -1.48831,-0.90908 -1.74624,-0.90908 -0.25793,0 -0.6571,-0.49486 -0.88702,-1.09958 -0.79772,-2.09816 -1.0287,-4.14789 -0.79707,-7.06261 0.27318,-3.4377 1.45378,-7.56312 2.47954,-8.66413 0.44667,-0.47945 0.97173,-0.62646 1.38734,-0.4987 z" />
  </g>
</svg>
