<?xml version="1.0" encoding="UTF-8" standalone="no"?>
<!-- Created with Inkscape (http://www.inkscape.org/) -->

<svg
   width="39.965309mm"
   height="39.963451mm"
   viewBox="0 0 39.96531 39.963452"
   version="1.1"
   id="svg21782"
   inkscape:version="1.3 (0e150ed6c4, 2023-07-21)"
   sodipodi:docname="initials-icon.svg"
   xml:space="preserve"
   inkscape:export-filename="initials-block.png"
   inkscape:export-xdpi="635.55121"
   inkscape:export-ydpi="635.55121"
   xmlns:inkscape="http://www.inkscape.org/namespaces/inkscape"
   xmlns:sodipodi="http://sodipodi.sourceforge.net/DTD/sodipodi-0.dtd"
   xmlns:xlink="http://www.w3.org/1999/xlink"
   xmlns="http://www.w3.org/2000/svg"
   xmlns:svg="http://www.w3.org/2000/svg"><sodipodi:namedview
     id="namedview21784"
     pagecolor="#ffffff"
     bordercolor="#666666"
     borderopacity="1.0"
     inkscape:showpageshadow="2"
     inkscape:pageopacity="0.0"
     inkscape:pagecheckerboard="0"
     inkscape:deskcolor="#d1d1d1"
     inkscape:document-units="mm"
     showgrid="false"
     inkscape:zoom="1.9919472"
     inkscape:cx="65.011762"
     inkscape:cy="43.424845"
     inkscape:window-width="1280"
     inkscape:window-height="1043"
     inkscape:window-x="20"
     inkscape:window-y="20"
     inkscape:window-maximized="0"
     inkscape:current-layer="layer1" /><defs
     id="defs21779"><clipPath
       clipPathUnits="userSpaceOnUse"
       id="clipPath26"><path
         id="path27"
         style="opacity:1;fill:url(#linearGradient27);stroke:none;stroke-width:0.967076"
         d="m -190.94935,349.46204 h 65.30971 v 65.30972 h -65.30971 z" /></clipPath><linearGradient
       inkscape:collect="always"
       xlink:href="#linearGradient2"
       id="linearGradient27"
       gradientUnits="userSpaceOnUse"
       gradientTransform="matrix(0.87556136,0,0,0.87556136,-100.9907,52.36931)"
       x1="-102.74398"
       y1="376.61279"
       x2="-28.152157"
       y2="376.61279" /><linearGradient
       id="linearGradient2"
       inkscape:collect="always"><stop
         style="stop-color:#622e00;stop-opacity:1;"
         offset="0"
         id="stop2" /><stop
         style="stop-color:#3b0a00;stop-opacity:1;"
         offset="1"
         id="stop3" /></linearGradient><filter
       style="color-interpolation-filters:sRGB"
       inkscape:label="Brilliance"
       id="filter201"
       x="0"
       y="0"
       width="1"
       height="1"><feColorMatrix
         values="1.05 -0.1 -0.1 0 -0.1 -0.1 1.05 -0.1 0 -0.1 -0.1 -0.1 1.05 0 -0.1 0 0 0 1 0 "
         id="feColorMatrix201" /></filter><filter
       style="color-interpolation-filters:sRGB"
       inkscape:label="Colorize"
       id="filter2251"
       x="0"
       y="0"
       width="1"
       height="1"><feComposite
         in2="SourceGraphic"
         operator="arithmetic"
         k1="0.544486"
         k2="1.04692"
         result="composite1"
         id="feComposite2250"
         k3="0"
         k4="0" /><feColorMatrix
         in="composite1"
         values="1"
         type="saturate"
         result="colormatrix1"
         id="feColorMatrix2250" /><feFlood
         flood-opacity="1"
         flood-color="rgb(0,197,255)"
         result="flood1"
         id="feFlood2250" /><feBlend
         in="flood1"
         in2="colormatrix1"
         mode="multiply"
         result="blend1"
         id="feBlend2250" /><feBlend
         in2="blend1"
         mode="screen"
         result="blend2"
         id="feBlend2251" /><feColorMatrix
         in="blend2"
         values="1"
         type="saturate"
         result="colormatrix2"
         id="feColorMatrix2251" /><feComposite
         in="colormatrix2"
         in2="SourceGraphic"
         operator="in"
         result="composite2"
         id="feComposite2251" /></filter><clipPath
       clipPathUnits="userSpaceOnUse"
       id="clipPath4"><path
         id="path4"
         style="opacity:1;fill:url(#linearGradient27);stroke:none;stroke-width:0.967076"
         d="m -190.94935,349.46204 h 65.30971 v 65.30972 h -65.30971 z" /></clipPath><filter
       style="color-interpolation-filters:sRGB"
       inkscape:label="Brilliance"
       id="filter6"
       x="0"
       y="0"
       width="1"
       height="1"><feColorMatrix
         values="1.05 -0.1 -0.1 0 -0.1 -0.1 1.05 -0.1 0 -0.1 -0.1 -0.1 1.05 0 -0.1 0 0 0 1 0 "
         id="feColorMatrix6" /></filter><clipPath
       clipPathUnits="userSpaceOnUse"
       id="clipPath27"><path
         id="path28"
         style="opacity:1;fill:url(#linearGradient27);stroke:none;stroke-width:0.967076"
         d="m -190.94935,349.46204 h 65.30971 v 65.30972 h -65.30971 z" /></clipPath><filter
       style="color-interpolation-filters:sRGB"
       inkscape:label="Brilliance"
       id="filter200"
       x="0"
       y="0"
       width="1"
       height="1"><feColorMatrix
         values="1.05 -0.1 -0.1 0 -0.1 -0.1 1.05 -0.1 0 -0.1 -0.1 -0.1 1.05 0 -0.1 0 0 0 1 0 "
         id="feColorMatrix200" /></filter><filter
       style="color-interpolation-filters:sRGB"
       inkscape:label="Colorize"
       id="filter2249"
       x="0"
       y="0"
       width="1"
       height="0.87264582"><feComposite
         in2="SourceGraphic"
         operator="arithmetic"
         k1="0.544486"
         k2="1.04692"
         result="composite1"
         id="feComposite2248"
         k3="0"
         k4="0" /><feColorMatrix
         in="composite1"
         values="1"
         type="saturate"
         result="colormatrix1"
         id="feColorMatrix2248" /><feFlood
         flood-opacity="1"
         flood-color="rgb(0,197,255)"
         result="flood1"
         id="feFlood2248" /><feBlend
         in="flood1"
         in2="colormatrix1"
         mode="multiply"
         result="blend1"
         id="feBlend2248" /><feBlend
         in2="blend1"
         mode="screen"
         result="blend2"
         id="feBlend2249" /><feColorMatrix
         in="blend2"
         values="1"
         type="saturate"
         result="colormatrix2"
         id="feColorMatrix2249" /><feComposite
         in="colormatrix2"
         in2="SourceGraphic"
         operator="in"
         result="composite2"
         id="feComposite2249" /></filter><clipPath
       clipPathUnits="userSpaceOnUse"
       id="clipPath4-1"><path
         id="path4-8"
         style="opacity:1;fill:url(#linearGradient27);stroke:none;stroke-width:0.967076"
         d="m -190.94935,349.46204 h 65.30971 v 65.30972 h -65.30971 z" /></clipPath><filter
       style="color-interpolation-filters:sRGB"
       inkscape:label="Brilliance"
       id="filter6-7"
       x="0"
       y="0"
       width="1"
       height="1"><feColorMatrix
         values="1.05 -0.1 -0.1 0 -0.1 -0.1 1.05 -0.1 0 -0.1 -0.1 -0.1 1.05 0 -0.1 0 0 0 1 0 "
         id="feColorMatrix6-9" /></filter><clipPath
       clipPathUnits="userSpaceOnUse"
       id="clipPath26-2"><path
         id="path27-0"
         style="opacity:1;fill:url(#linearGradient27);stroke:none;stroke-width:0.967076"
         d="m -190.94935,349.46204 h 65.30971 v 65.30972 h -65.30971 z" /></clipPath><filter
       style="color-interpolation-filters:sRGB"
       inkscape:label="Brilliance"
       id="filter201-2"
       x="0"
       y="0"
       width="1"
       height="1"><feColorMatrix
         values="1.05 -0.1 -0.1 0 -0.1 -0.1 1.05 -0.1 0 -0.1 -0.1 -0.1 1.05 0 -0.1 0 0 0 1 0 "
         id="feColorMatrix201-3" /></filter><filter
       style="color-interpolation-filters:sRGB"
       inkscape:label="Colorize"
       id="filter2251-7"
       x="0"
       y="0"
       width="1"
       height="1"><feComposite
         in2="SourceGraphic"
         operator="arithmetic"
         k1="0.544486"
         k2="1.04692"
         result="composite1"
         id="feComposite2250-5"
         k3="0"
         k4="0" /><feColorMatrix
         in="composite1"
         values="1"
         type="saturate"
         result="colormatrix1"
         id="feColorMatrix2250-9" /><feFlood
         flood-opacity="1"
         flood-color="rgb(0,197,255)"
         result="flood1"
         id="feFlood2250-2" /><feBlend
         in="flood1"
         in2="colormatrix1"
         mode="multiply"
         result="blend1"
         id="feBlend2250-2" /><feBlend
         in2="blend1"
         mode="screen"
         result="blend2"
         id="feBlend2251-8" /><feColorMatrix
         in="blend2"
         values="1"
         type="saturate"
         result="colormatrix2"
         id="feColorMatrix2251-9" /><feComposite
         in="colormatrix2"
         in2="SourceGraphic"
         operator="in"
         result="composite2"
         id="feComposite2251-7" /></filter><clipPath
       clipPathUnits="userSpaceOnUse"
       id="clipPath10"><path
         id="path10"
         style="opacity:1;fill:url(#linearGradient27);stroke:none;stroke-width:0.967076"
         d="m -190.94935,349.46204 h 65.30971 v 65.30972 h -65.30971 z" /></clipPath><filter
       style="color-interpolation-filters:sRGB"
       inkscape:label="Brilliance"
       id="filter12"
       x="0"
       y="0"
       width="1"
       height="1"><feColorMatrix
         values="1.05 -0.1 -0.1 0 -0.1 -0.1 1.05 -0.1 0 -0.1 -0.1 -0.1 1.05 0 -0.1 0 0 0 1 0 "
         id="feColorMatrix12" /></filter><clipPath
       clipPathUnits="userSpaceOnUse"
       id="clipPath26-1"><path
         id="path27-2"
         style="opacity:1;fill:url(#linearGradient27);stroke:none;stroke-width:0.967076"
         d="m -190.94935,349.46204 h 65.30971 v 65.30972 h -65.30971 z" /></clipPath><filter
       style="color-interpolation-filters:sRGB"
       inkscape:label="Brilliance"
       id="filter201-1"
       x="0"
       y="0"
       width="1"
       height="1"><feColorMatrix
         values="1.05 -0.1 -0.1 0 -0.1 -0.1 1.05 -0.1 0 -0.1 -0.1 -0.1 1.05 0 -0.1 0 0 0 1 0 "
         id="feColorMatrix201-9" /></filter><clipPath
       clipPathUnits="userSpaceOnUse"
       id="clipPath27-4"><path
         id="path28-7"
         style="opacity:1;fill:url(#linearGradient27);stroke:none;stroke-width:0.967076"
         d="m -190.94935,349.46204 h 65.30971 v 65.30972 h -65.30971 z" /></clipPath><filter
       style="color-interpolation-filters:sRGB"
       inkscape:label="Brilliance"
       id="filter200-8"
       x="0"
       y="0"
       width="1"
       height="1"><feColorMatrix
         values="1.05 -0.1 -0.1 0 -0.1 -0.1 1.05 -0.1 0 -0.1 -0.1 -0.1 1.05 0 -0.1 0 0 0 1 0 "
         id="feColorMatrix200-4" /></filter></defs><g
     inkscape:label="Layer 1"
     inkscape:groupmode="layer"
     id="layer1"
     transform="translate(34.899701,-109.7547)"><path
       id="rect26363"
       style="fill:#1e293b;fill-opacity:1;stroke:none;stroke-width:0.765;stroke-dasharray:none;stroke-opacity:1"
       d="m -25.833813,109.7547 c -5.021305,0 -9.063529,4.04222 -9.063529,9.06353 v 21.83587 c 0,5.02131 4.042224,9.06405 9.063529,9.06405 h 21.8358768 c 5.0213053,0 9.0635295,-4.04274 9.0635295,-9.06405 v -21.83587 c 0,-5.02131 -4.0422242,-9.06353 -9.0635295,-9.06353 z" /><path
       id="path16"
       style="fill:#f9f9f9;stroke-width:0.805075"
       d="m 7.0327331,126.18467 c -1.114521,0.13145 -12.8419784,2.49469 -12.9977084,1.33139 -0.173575,-1.29669 -0.623672,-2.21839 -1.719295,-3.52189 -0.994113,-1.18276 -1.531554,-1.62978 -2.140497,-1.77966 -0.2653197,-0.0654 -0.4847747,-0.20414 -0.4874237,-0.30866 -0.0027,-0.10435 -0.177151,-0.18519 -0.387934,-0.17975 -0.210773,0.005 -0.487688,-0.0893 -0.615187,-0.21036 -0.127507,-0.12107 -1.325305,-0.27212 -2.661461,-0.3361 -1.964019,-0.0941 -2.609323,-0.0502 -3.369205,0.22999 -1.06471,0.39265 -2.431843,1.42751 -3.265084,2.47172 -0.309836,0.38827 -1.30402,1.16256 -2.209244,1.72051 -0.905245,0.558 -1.643132,1.11716 -1.639869,1.24251 0.0067,0.25866 -3.092052,3.41735 -3.359332,3.4243 -0.0957,0.002 -0.170101,0.14827 -0.165602,0.32387 0.0045,0.17573 -0.144597,0.32341 -0.331489,0.32827 -0.333095,0.009 -1.35743,0.54284 -1.977065,1.03112 -0.172223,0.13562 -0.551048,0.31877 -0.841733,0.40685 -2.793008,0.84608 -2.542784,0.82392 -6.165107,0.5487 -2.815492,-0.21388 -2.94959,-0.2049 -3.046478,0.205 h -4.16e-4 c -0.295568,1.25024 0.183043,1.65831 2.468604,2.10572 3.005973,0.58846 6.800587,0.26814 6.819455,-0.57571 0.0042,-0.1913 0.05527,-0.24044 0.113235,-0.10895 0.137605,0.3118 1.701817,-0.0673 2.127407,-0.51566 0.167993,-0.17697 0.435223,-0.32512 0.594041,-0.32924 0.158836,-0.004 0.504347,-0.29045 0.767544,-0.63591 0.263196,-0.34549 0.856787,-0.82998 1.31914,-1.07686 0.46235,-0.2469 1.017781,-0.65566 1.234467,-0.90816 0.216693,-0.25251 0.577434,-0.46367 0.801403,-0.46948 0.326767,-0.009 0.378523,0.0848 0.262844,0.47259 -0.333257,1.1171 0.16747,4.27302 0.86423,5.44813 1.080661,1.82257 2.318151,2.59445 4.715651,2.94117 1.159242,0.16766 1.627641,0.12212 3.424009,-0.33131 2.390407,-0.6034 4.073579,-1.637 5.9044037,-3.6262 1.111267,-1.20738 2.719475,-3.40001 2.711741,-3.69711 -0.0024,-0.0924 0.133117,-0.11886 0.301043,-0.0595 0.167909,0.0595 0.531904,-0.0493 0.809425,-0.24163 0.277499,-0.19229 0.554543,-0.30268 0.615396,-0.2449 0.06109,0.0574 0.672311,-0.0991 1.358889,-0.34874 0.686579,-0.24973 1.374407,-0.45952 1.528534,-0.46677 0.154108,-0.007 6.1325909,-0.86289 6.5088469,-1.16567 z m -19.3275581,-2.89998 c 0.06409,0.0124 0.07589,0.0561 0.03326,0.12913 -0.118369,0.20316 0.592251,0.54895 0.988848,0.48119 0.08755,-0.0143 0.16164,0.0687 0.164587,0.18602 0.003,0.11711 0.125434,0.21281 0.271883,0.21309 0.827262,5.5e-4 2.3157047,2.0739 2.5248977,3.51761 0.210489,1.45261 0.02097,1.55111 -3.2316307,1.67843 -2.195709,0.0859 -2.95959,0.0331 -3.936588,-0.27129 -1.08261,-0.33733 -1.239601,-0.46104 -1.468434,-1.15831 -0.504233,-1.53638 -0.238705,-2.63076 0.689733,-2.84169 0.824756,-0.18739 1.755088,-0.98772 1.595699,-1.37287 -0.0984,-0.23753 0.06078,-0.31378 0.693421,-0.33264 0.451644,-0.0144 1.050262,-0.0922 1.330136,-0.1749 0.164323,-0.0485 0.28013,-0.0662 0.34403,-0.0535 z m -7.407495,3.91958 c 0.213105,0.0596 0.374211,0.26027 0.386616,0.57508 0.03135,0.79891 1.016173,2.32579 1.924614,2.98345 0.483375,0.34986 1.38917,0.78725 2.011739,0.97437 0.987587,0.29482 3.821873,0.52784 5.292591,0.43494 0.5411557,-0.0341 0.5324357,-0.003 -0.399381,1.36548 -0.623731,0.9166 -1.300818,1.47661 -2.401659,1.9873 -0.376326,0.1746 -0.682085,0.40031 -0.679461,0.50128 0.0084,0.32156 -2.044866,0.78023 -3.778144,0.84409 -1.397171,0.0515 -1.785919,-0.0124 -2.337666,-0.38406 -0.363879,-0.24531 -0.769102,-0.44289 -0.900335,-0.43945 -0.131223,0.003 -0.34087,-0.24299 -0.465798,-0.54765 -0.433597,-1.05681 -0.578235,-2.09649 -0.498973,-3.58236 0.09347,-1.75244 0.639462,-3.86677 1.146716,-4.44045 0.220886,-0.2498 0.486054,-0.33157 0.699166,-0.27206 z"
       sodipodi:nodetypes="ccccccsccccccscccccccccccccsccscccsccccccccccccsccccccccccccccccccccccccc" /></g></svg>
