<?xml version="1.0" encoding="UTF-8" standalone="no"?>
<!-- Created with Inkscape (http://www.inkscape.org/) -->

<svg
   width="39.965309mm"
   height="39.963451mm"
   viewBox="0 0 39.96531 39.963452"
   version="1.1"
   id="svg21782"
   inkscape:version="1.2.1 (9c6d41e410, 2022-07-14)"
   sodipodi:docname="initials-icon.svg"
   xml:space="preserve"
   inkscape:export-filename="initials-block.png"
   inkscape:export-xdpi="635.55121"
   inkscape:export-ydpi="635.55121"
   xmlns:inkscape="http://www.inkscape.org/namespaces/inkscape"
   xmlns:sodipodi="http://sodipodi.sourceforge.net/DTD/sodipodi-0.dtd"
   xmlns="http://www.w3.org/2000/svg"
   xmlns:svg="http://www.w3.org/2000/svg"><sodipodi:namedview
     id="namedview21784"
     pagecolor="#ffffff"
     bordercolor="#666666"
     borderopacity="1.0"
     inkscape:showpageshadow="2"
     inkscape:pageopacity="0.0"
     inkscape:pagecheckerboard="0"
     inkscape:deskcolor="#d1d1d1"
     inkscape:document-units="mm"
     showgrid="false"
     inkscape:zoom="1.4085194"
     inkscape:cx="11.714429"
     inkscape:cy="67.801693"
     inkscape:window-width="1346"
     inkscape:window-height="706"
     inkscape:window-x="0"
     inkscape:window-y="0"
     inkscape:window-maximized="1"
     inkscape:current-layer="layer1" /><defs
     id="defs21779" /><g
     inkscape:label="Layer 1"
     inkscape:groupmode="layer"
     id="layer1"
     transform="translate(34.899701,-109.7547)"><path
       id="rect26363"
       style="fill:#1e293b;fill-opacity:1;stroke:none;stroke-width:0.765;stroke-dasharray:none;stroke-opacity:1"
       d="m -25.833813,109.7547 c -5.021305,0 -9.063529,4.04222 -9.063529,9.06353 v 21.83587 c 0,5.02131 4.042224,9.06405 9.063529,9.06405 h 21.8358768 c 5.0213053,0 9.0635295,-4.04274 9.0635295,-9.06405 v -21.83587 c 0,-5.02131 -4.0422242,-9.06353 -9.0635295,-9.06353 z" /><g
       id="g28309"
       transform="matrix(1.249164,0,0,1.249164,-81.397019,-30.901897)"><path
         id="path30140"
         style="color:#000000;fill:#ffffff"
         d="m 60.397926,123.37062 c -0.114811,10e-4 -0.228505,0.009 -0.341064,0.0233 v 5.2e-4 c -0.450236,0.0562 -0.877425,0.21094 -1.250053,0.42994 -0.220665,0.12969 -0.42619,0.28093 -0.614433,0.45011 -0.07662,-0.0197 -0.151658,-0.0325 -0.221692,-0.0398 -0.270149,-0.0282 -0.517104,0.0107 -0.775146,0.0703 -1.733717,0.23221 -3.209193,1.01225 -4.591968,1.64847 -0.371219,0.17079 -0.721679,0.28092 -1.080037,0.42168 -0.02578,-0.0781 -8.95e-4,-0.15641 -0.03152,-0.23409 -0.245525,-0.66892 -0.630126,-1.33479 -1.198893,-1.86552 -0.567088,-0.52916 -1.353738,-0.91461 -2.249992,-0.89814 v -5.1e-4 c -0.272983,-0.005 -0.534346,0.17198 -0.810803,0.22686 -2.986667,-0.22775 -5.518741,2.07297 -6.300908,4.73614 -0.184812,0.5636 -0.177318,1.14013 -0.08578,1.70326 -1.231437,0.17709 -2.440598,0.44236 -3.622888,0.78384 l 0.0019,1.8184 c 1.425889,-0.45314 2.886031,-0.78102 4.353254,-0.95221 0.375059,0.47643 0.830814,0.88904 1.437639,1.11931 1.618585,0.73087 3.594509,0.92868 5.312854,0.0232 1.184275,-0.55363 2.206759,-1.50214 2.841687,-2.67736 0.328033,-0.60716 0.53609,-1.28708 0.599446,-1.99212 0.534516,-0.19404 1.077606,-0.38207 1.572514,-0.60978 1.248456,-0.57442 2.392529,-1.0429 3.546554,-1.30277 -1.478528,3.29661 -3.427581,6.45708 -4.830196,9.99629 -0.0044,0.01 -0.009,0.0197 -0.01344,0.0295 -0.0013,0.003 -0.0028,0.006 -0.0041,0.01 -1.24422,2.76236 -2.437896,5.54395 -3.650163,8.3033 h 1.929857 c 1.117918,-2.55319 2.208037,-5.08871 3.347597,-7.61756 l 0.0078,-0.0176 0.0078,-0.0196 c 1.389961,-3.52134 3.492459,-6.81804 5.069975,-10.48102 0.0183,-0.0274 0.03753,-0.0546 0.05478,-0.0822 l 0.01602,0.006 c 0.01606,-0.0415 0.03414,-0.0828 0.05374,-0.12403 0.02161,-0.0388 0.04175,-0.0783 0.06098,-0.11833 0.179912,-0.32082 0.457308,-0.61472 0.76016,-0.79272 0.377976,-0.22214 0.745163,-0.28042 1.127063,-0.13849 0.945155,0.35713 1.201256,0.71399 1.330151,1.12861 0.129147,0.41543 0.06986,1.03018 -0.09405,1.74821 -0.163912,0.71803 -0.420474,1.50227 -0.466638,2.34353 -0.04616,0.84127 0.258976,1.868 1.146183,2.4474 l 0.0041,0.004 0.0041,0.002 c 1.279192,0.81843 2.895941,0.53429 3.944978,-0.41238 l 0.0041,-0.004 0.0057,-0.004 c 1.625379,-1.51003 0.743054,-0.72542 2.511299,-1.90066 v -1.96345 c -1.728737,1.14899 -2.124372,1.09344 -3.714244,2.57049 l 0.0098,-0.01 c -0.483677,0.43648 -1.301217,0.55477 -1.806608,0.23409 -0.351748,-0.23136 -0.37517,-0.37009 -0.347782,-0.8692 0.02757,-0.5024 0.241528,-1.23962 0.425813,-2.0469 0.184286,-0.80728 0.352079,-1.72089 0.05891,-2.66392 -0.293164,-0.94303 -1.108686,-1.7745 -2.396753,-2.25981 h -0.0021 l -0.0021,-0.002 c -0.346705,-0.12885 -0.698914,-0.18353 -1.043348,-0.17931 z m -12.374438,1.76578 v 5.2e-4 h 0.02119 0.0217 c 0.392963,-0.0105 0.70702,0.13378 1.021643,0.42736 0.314623,0.29358 0.590219,0.74221 0.75396,1.19166 l 0.0036,0.0114 0.0062,0.0119 c 0.0064,0.0161 -4.17e-4,0.033 0.0057,0.0491 -0.422344,0.0732 -0.841825,0.17864 -1.275374,0.14624 -0.494788,-0.0648 -1.038576,-0.18819 -1.435571,-0.38292 -0.344102,-0.16879 -0.498859,-0.37498 -0.613399,-0.62115 0.02445,-0.19474 0.07426,-0.35022 0.330212,-0.51522 0.309178,-0.19932 0.807826,-0.32647 1.160136,-0.31884 z m -3.306775,0.96893 c 4.39e-4,0.0224 -0.01662,0.0384 -0.0155,0.061 l 0.0057,0.10904 0.03152,0.10387 c 0.268963,0.88071 0.948601,1.46366 1.630908,1.79834 0.682307,0.33469 1.4022,0.47713 2.013314,0.555 l 0.01964,0.002 0.0217,0.002 c 0.511102,0.0403 0.959351,-0.0921 1.433504,-0.15658 -0.07187,0.24779 -0.109848,0.49907 -0.240295,0.74052 -0.44538,0.82438 -1.22821,1.54847 -2.054655,1.9296 l -0.0217,0.0114 -0.02325,0.0119 c -1.128851,0.60067 -2.560601,0.49381 -3.802869,-0.0739 l -0.02894,-0.014 -0.03152,-0.0119 c -0.862818,-0.31783 -1.33798,-1.40886 -1.044898,-2.29082 l 0.0041,-0.0155 0.0057,-0.0176 c 0.319377,-1.09941 1.119729,-2.08864 2.097546,-2.74454 z"
         sodipodi:nodetypes="cccscccsccsccccccccccscsccccccccccccccccssscccccccccccssscccccccccscccccscsccscccsccccsccccccccccs" /></g></g></svg>
