<?xml version="1.0" standalone="no"?>
<!DOCTYPE svg PUBLIC "-//W3C//DTD SVG 20010904//EN"
 "http://www.w3.org/TR/2001/REC-SVG-20010904/DTD/svg10.dtd">
<svg version="1.0" xmlns="http://www.w3.org/2000/svg"
 width="700.000000pt" height="700.000000pt" viewBox="0 0 700.000000 700.000000"
 preserveAspectRatio="xMidYMid meet">
<metadata>
Created by potrace 1.14, written by Peter Selinger 2001-2017
</metadata>
<g transform="translate(0.000000,700.000000) scale(0.100000,-0.100000)"
fill="#000000" stroke="none">
<path d="M1449 6996 c-2 -2 -29 -6 -60 -9 -31 -4 -76 -11 -100 -16 -24 -6 -57
-12 -74 -15 -65 -12 -225 -70 -322 -117 -94 -45 -245 -140 -280 -175 -8 -8
-18 -14 -22 -14 -12 0 -174 -161 -231 -230 -168 -204 -296 -483 -336 -736 -3
-20 -8 -46 -12 -58 -10 -35 -12 -4165 -1 -4226 38 -222 69 -333 133 -473 151
-332 423 -610 751 -767 138 -66 229 -96 435 -142 42 -9 537 -12 2135 -14 1977
-3 2086 -2 2192 16 61 10 120 21 131 24 11 4 29 9 39 11 41 8 183 59 249 90
414 189 723 547 860 995 2 8 17 67 31 130 l27 115 3 2070 c1 1175 -2 2096 -7
2130 -5 33 -12 83 -16 110 -3 28 -8 53 -10 56 -2 3 -5 19 -8 35 -11 63 -69
223 -116 320 -173 357 -473 636 -843 783 -80 32 -238 77 -302 86 -22 3 -65 9
-95 15 -51 8 -4141 15 -4151 6z"/>
</g>
</svg>
